<svg xmlns="http://www.w3.org/2000/svg" viewBox="0 0 206.61 205.05"><defs><style>.cls-1{fill:#102619;}.cls-2{fill:#388940;}.cls-3{fill:#fdfffd;}</style></defs><g id="Camada_2" data-name="Camada 2"><g id="Camada_1-2" data-name="Camada 1"><path class="cls-1" d="M63.19,197.06A104,104,0,0,1,8.07,142.3,98.91,98.91,0,0,1,0,102.53,98.85,98.85,0,0,1,8.07,62.7,104,104,0,0,1,63.19,8,101.18,101.18,0,0,1,103.3,0a101.2,101.2,0,0,1,40.12,8,104,104,0,0,1,55.13,54.7,99,99,0,0,1,8.06,39.83,99.07,99.07,0,0,1-8.06,39.77,103.94,103.94,0,0,1-55.13,54.76,101.19,101.19,0,0,1-40.12,8,101.18,101.18,0,0,1-40.11-8M72.11,49.22A63.26,63.26,0,0,0,49.62,71.56a59.13,59.13,0,0,0-8.38,31,59.16,59.16,0,0,0,8.38,31,63.23,63.23,0,0,0,22.49,22.33,60.21,60.21,0,0,0,31.19,8.32,60.22,60.22,0,0,0,31.2-8.32A63.23,63.23,0,0,0,157,133.5a59.16,59.16,0,0,0,8.38-31,59.13,59.13,0,0,0-8.38-31A63.26,63.26,0,0,0,134.5,49.22a60.32,60.32,0,0,0-31.2-8.32,60.31,60.31,0,0,0-31.19,8.32"/><path class="cls-2" d="M167.26,102.1A65,65,0,1,0,81,163.51l-.3,39.14h.09a105.09,105.09,0,0,0,22.56,2.4,106.23,106.23,0,0,0,21.35-2.12h0l-1.1-39.42a65,65,0,0,0,43.7-61.41m-47.55,38.5H84.81a5.55,5.55,0,1,1,0-11.1h34.9a5.55,5.55,0,1,1,0,11.1"/><path class="cls-3" d="M88.67,111.46S78.19,48.19,157.75,22c0,0,23.18,83.41-60.73,94,0,0,19.41-37.9,34-50.26,0,0-35.4,25.2-42.33,45.73"/></g></g></svg>